# xmcd
#
# Track frame offsets:
# 150
# 19670
# 41708
# 62921
# 91534
# 116378
# 141494
# 162000
#
# Disc length: 2334 seconds
#
# Revision: 1
# Processed by: cddbd v1.5.1PL2 Copyright (c) Steve Scherf et al.
# Submitted via: CedeCatalogueitor 2.6.0.6 http://personales.ya.com/cdcatalogueitor
#
DISCID=60091c08
DTITLE=Javier Lizalde - A Base De Cierzo
DYEAR=2005
DGENRE=
TTITLE0=A Base De Cierzo
TTITLE1=Paseo Los Tristes
TTITLE2=Pispireta
TTITLE3=Carmen
TTITLE4=Me Imagino Argentina
TTITLE5=Del Camino Andado
TTITLE6=El Quebrantahuesos
TTITLE7=Mis Lagunas
EXTD=
EXTT0=
EXTT1=
EXTT2=
EXTT3=
EXTT4=
EXTT5=
EXTT6=
EXTT7=
PLAYORDER=
